# xmcd
#
# Track frame offsets: 
#        150
#        13426
#        28377
#        44513
#        58175
#        76036
#        92397
#        109117
#        152736
#        167887
#
# Disc length: 2438 seconds
#
# Revision: 2
# Processed by: cddbd v1.5.2PL0 Copyright (c) Steve Scherf et al.
# Submitted via: ExactAudioCopy v1.0b4
#
DISCID=7d09840a
DTITLE=Various Artist - Blues At Newport  [Disc 1]
DYEAR=1900
DGENRE=blues
TTITLE0=Mississippi John Hurt - Mississippi John Hurt - Candy Man
TTITLE1=Mississippi John Hurt - Mississippi John Hurt - Coffee Blues
TTITLE2=Mississippi John Hurt - Mississippi John Hurt - Stagolee
TTITLE3=Sonny Terry and Brownie McGhee  - Sonny Terry and Brownie McGhee -
TTITLE3=Long Gone
TTITLE4=Sonny Terry and Brownie McGhee - Sonny Terry and Brownie McGhee - 
TTITLE4=Key To The Highway
TTITLE5=Reverend Gary Davis - Reverend Gary Davis - Samson and Delilah
TTITLE6=Reverend Gary Davis - Reverend Gary Davis - I Won't Be Back No
TTITLE6=More
TTITLE7=Reverend Robert Wilkins - Reverend Robert Wilkins - The Prodig
TTITLE7=al Son
TTITLE8=Reverend Robert Wilkins - Reverend Robert Wilkins -Heaven Sitt
TTITLE8=ing Down
TTITLE9=Skip James - Skip James - Devil Got My Woman
EXTD=
EXTT0=
EXTT1=
EXTT2=
EXTT3=
EXTT4=
EXTT5=
EXTT6=
EXTT7=
EXTT8=
EXTT9=
PLAYORDER=
